<svg xmlns="http://www.w3.org/2000/svg" width="16" height="16" fill="currentColor" class="bi bi-alarm" viewBox="0 0 512 512">
	<path d="M57.122,266.166V68.137c0-17.601,14.319-31.921,31.921-31.921c15.019,0,27.64,10.429,31.024,24.423
		c-13.723,8.525-24.149,21.291-29.759,36.708c-6.625,18.202-5.766,37.892,2.421,55.446l7.056,15.133l131.438-61.291l-7.056-15.132
		c-8.185-17.554-22.718-30.87-40.919-37.495c-10.243-3.73-20.96-5.087-31.5-4.102c-7.912-27.166-33.017-47.082-62.704-47.082
		c-36.014,0-65.312,29.299-65.312,65.312v198.029H0v33.391h24.168c1.83,34.981,9.574,63.856,23.549,87.873
		c12.414,21.335,29.568,38.088,50.985,49.794c4.843,2.647,9.921,5.028,15.209,7.16l-31.218,46.052l27.639,18.737l37.421-55.201
		c12.927,2.334,26.759,3.526,41.465,3.526h133.565c14.707,0,28.538-1.192,41.465-3.526l37.421,55.201l27.639-18.737l-31.218-46.052
		c5.289-2.133,10.366-4.512,15.209-7.16c21.417-11.707,38.571-28.459,50.985-49.794c13.974-24.016,21.719-52.892,23.549-87.873H512
		v-33.392H57.122z"/>
</svg>
