<svg xmlns="http://www.w3.org/2000/svg" width="16" height="16" viewBox="0 0 50 50">
	<path d="M 27 2 C 24.250484 2 22 4.2504839 22 7 C 22 9.7495161 24.250484 12 27 12 C 29.749516 12 32 9.7495161 32 7 C 32 4.2504839 29.749516 2 27 2 z M 27 4 C 28.668484 4 30 5.3315161 30 7 C 30 8.6684839 28.668484 10 27 10 C 25.331516 10 24 8.6684839 24 7 C 24 5.3315161 25.331516 4 27 4 z M 23.210938 13 C 22.111991 13 21.042153 13.362003 20.169922 14.029297 L 14.21875 18.587891 A 1.0001 1.0001 0 0 0 14.115234 18.679688 C 13.772503 18.958252 13.489672 19.31337 13.294922 19.726562 A 1.0001 1.0001 0 0 0 13.214844 19.878906 L 10.378906 26.568359 C 10.148326 26.9881 10 27.475722 10 28 C 10 29.64497 11.35503 31 13 31 C 14.318322 31 15.436341 30.130034 15.832031 28.939453 L 18.283203 23.441406 L 19.421875 22.607422 C 18.873555 24.854543 18.1875 27.675781 18.1875 27.675781 A 1.0001 1.0001 0 0 0 18.15625 27.935547 C 18.079651 28.259715 18.005393 28.594146 18.001953 28.974609 A 1.0001 1.0001 0 0 0 17.996094 29.001953 L 16.570312 36.154297 L 11.951172 42.111328 A 1.0001 1.0001 0 0 0 11.9375 42.130859 C 11.600122 42.58777 11 43.383897 11 44.5 C 11 46.421188 12.578812 48 14.5 48 C 15.89585 48 16.851916 47.091781 17.419922 46.396484 A 1.0001 1.0001 0 0 0 17.439453 46.373047 L 22.417969 39.902344 A 1.0001 1.0001 0 0 0 22.591797 39.548828 L 23.521484 36.0625 L 25.21875 37.611328 L 27.052734 44.978516 L 27.029297 44.832031 C 27.059477 45.147731 27.145509 45.4733 27.271484 45.792969 C 27.284134 45.841619 27.419597 46.386309 27.888672 46.914062 C 28.378259 47.464894 29.275005 47.992412 30.494141 48 C 32.410922 48.0111 33.904297 46.398283 33.904297 44.523438 C 33.904297 44.087032 33.861867 43.610645 33.683594 43.082031 L 33.707031 43.160156 L 31.699219 35.109375 A 1.0001 1.0001 0 0 0 31.53125 34.753906 L 27.091797 28.798828 L 28.337891 24.212891 L 29.863281 25.90625 A 1.0001 1.0001 0 0 0 30.332031 26.199219 L 35.943359 27.802734 L 35.945312 27.802734 C 35.945312 27.802734 35.947266 27.802734 35.947266 27.802734 C 35.951466 27.803934 35.958767 27.806194 35.966797 27.808594 C 35.984337 27.813694 36.008462 27.821568 36.039062 27.830078 C 36.100253 27.847108 36.183453 27.869338 36.279297 27.892578 C 36.47101 27.939109 36.665651 28 37 28 C 38.645573 28 40.057998 26.64984 40 24.964844 C 39.9444 23.37201 38.854916 22.430307 37.947266 22.154297 A 1.0001 1.0001 0 0 0 37.939453 22.152344 L 33.283203 20.785156 L 29.484375 15.402344 A 1.0001 1.0001 0 0 0 29.388672 15.285156 C 28.644997 13.994609 27.289733 13.107683 25.71875 13.029297 C 25.68335 13.020497 25.611359 13.015736 25.550781 13.009766 C 25.546181 13.009312 25.541079 13.008212 25.537109 13.007812 C 25.523973 13.007745 25.51316 13 25.5 13 C 25.321875 13 25.393445 13.001353 25.486328 13.001953 C 25.485434 13.001828 25.474646 13 25.474609 13 L 23.210938 13 z M 23.210938 15 L 25.466797 15 L 25.474609 15 C 25.475027 15.000036 25.482422 15.001953 25.482422 15.001953 C 25.710644 15.001953 25.71622 15 25.5 15 C 26.892562 15 28 16.107438 28 17.5 C 28 17.715878 27.95895 17.942925 27.884766 18.197266 A 1.0001 1.0001 0 0 0 27.847656 18.398438 L 25.035156 28.744141 A 1.0001 1.0001 0 0 0 25.197266 29.603516 L 29.806641 35.787109 L 31.765625 43.644531 A 1.0001 1.0001 0 0 0 31.789062 43.720703 C 31.898795 44.046089 31.904297 44.167842 31.904297 44.523438 C 31.904297 45.410592 31.351078 46.004896 30.505859 46 C 29.796995 45.9956 29.552725 45.777105 29.382812 45.585938 C 29.2129 45.394768 29.189453 45.277344 29.189453 45.277344 A 1.0001 1.0001 0 0 0 29.130859 45.103516 C 29.077039 44.982801 29.037429 44.829832 29.019531 44.642578 A 1.0001 1.0001 0 0 0 28.994141 44.496094 L 27.085938 36.835938 A 1.0001 1.0001 0 0 0 26.789062 36.337891 L 21.773438 31.761719 A 1.0001 1.0001 0 0 0 21.578125 31.623047 C 21.172729 31.401606 20.855427 31.085736 20.597656 30.732422 L 20.636719 31.039062 A 1.0001 1.0001 0 0 0 20.494141 30.638672 C 20.492641 30.636372 20.489781 30.635113 20.488281 30.632812 A 1.0001 1.0001 0 0 0 20.363281 30.476562 L 20.474609 30.587891 C 20.179489 30.120283 20 29.586502 20 29 C 20 28.751074 20.045 28.496526 20.123047 28.212891 A 1.0001 1.0001 0 0 0 20.148438 28.076172 C 20.181487 27.949967 21.36114 23.449397 22.019531 20.392578 A 1.0001 1.0001 0 0 0 20.451172 19.375 L 16.888672 21.984375 A 1.0001 1.0001 0 0 0 16.566406 22.384766 L 14.005859 28.125 A 1.0001 1.0001 0 0 0 13.955078 28.265625 C 13.837137 28.691521 13.467059 29 13 29 C 12.43497 29 12 28.56503 12 28 C 12 27.813693 12.05318 27.64363 12.152344 27.482422 A 1.0001 1.0001 0 0 0 12.220703 27.347656 L 15.005859 20.777344 L 14.941406 20.861328 A 1.0001 1.0001 0 0 0 15.076172 20.625 C 15.142882 20.458946 15.258571 20.312681 15.412109 20.199219 A 1.0001 1.0001 0 0 0 15.609375 20.003906 L 15.539062 20.095703 L 21.384766 15.619141 L 21.386719 15.617188 C 21.910067 15.21751 22.55273 15 23.210938 15 z M 29.707031 19.185547 L 31.849609 22.222656 A 1.0001 1.0001 0 0 0 32.384766 22.605469 L 37.365234 24.068359 C 37.483584 24.104349 37.975596 24.33599 38 25.035156 C 38.018002 25.55816 37.564427 26 37 26 C 37.08035 26 36.886015 25.981729 36.751953 25.949219 C 36.684923 25.932959 36.621454 25.914934 36.576172 25.902344 C 36.553532 25.896044 36.535727 25.892232 36.523438 25.888672 C 36.518037 25.887072 36.513286 25.885766 36.509766 25.884766 C 36.509766 25.884766 36.507812 25.884766 36.507812 25.884766 C 36.505913 25.884211 36.504853 25.883712 36.501953 25.882812 L 36.496094 25.880859 L 31.158203 24.355469 L 28.962891 21.916016 L 29.707031 19.185547 z M 19.357422 32.398438 C 19.69174 32.751451 20.072857 33.052116 20.488281 33.294922 L 21.855469 34.542969 L 20.710938 38.841797 L 15.869141 45.132812 C 15.491194 45.594566 14.939419 46 14.5 46 C 13.659188 46 13 45.340812 13 44.5 C 13 44.227022 13.27716 43.683376 13.542969 43.322266 C 13.543863 43.321066 13.544022 43.319559 13.544922 43.318359 L 18.294922 37.193359 A 1.0001 1.0001 0 0 0 18.486328 36.777344 L 19.357422 32.398438 z"></path>
</svg>