<svg xmlns="http://www.w3.org/2000/svg" width="16" height="16" fill="currentColor" class="bi bi-person-circle" viewBox="0 0 16 16">
  <path d="m13.0943,10.78451c-0.66148,-0.98249 -2.11766,-2.03541 -5.0943,-2.03541s-4.43189,1.05206 -5.0943,2.03541a6.50948,6.0006 0 0 0 5.0943,2.25871a6.50948,6.0006 0 0 0 5.0943,-2.25871z" transform="matrix(1 0 0 1 0 0)"/>
  <path d="m8,8.17501a2.69063,2.69063 0 1 0 0,-5.38126a2.69063,2.69063 0 0 0 0,5.38126z" fill-rule="evenodd"/>
  <path d="m11.65883,6.78044l4.07089,0a0.25883,0.29753 0 0 1 0.19878,0.48794l-2.03544,2.80864a0.25883,0.29753 0 0 1 -0.39756,0l-2.03544,-2.80864a0.25883,0.29753 0 0 1 0.19878,-0.48794zm-11.38854,2.3802l4.07089,0a0.25883,0.29753 0 0 0 0.19878,-0.48794l-2.03544,-2.80864a0.25883,0.29753 0 0 0 -0.39756,0l-2.03544,2.80864a0.25883,0.29753 0 0 0 0.19878,0.48794z" transform="matrix(1 0 0 1 0 0)"/>
  <path d="m8.01384,2.0652c-1.82911,0 -3.46493,0.83323 -4.54566,2.1426a0.58927,0.58927 0 1 1 -0.90866,-0.74956a7.07365,7.07365 0 0 1 12.4278,3.32115l-1.19858,0a5.8951,5.8951 0 0 0 -5.77489,-4.71419zm-5.77489,7.07129a5.8951,5.8951 0 0 0 10.32055,2.57159a0.58927,0.58927 0 1 1 0.90866,0.74956a7.07365,7.07365 0 0 1 -12.4278,-3.32115l1.19858,0z" fill-rule="evenodd" transform="matrix(1 0 0 1 0 0)"/>
</svg>
